# xmcd CD database file generated by OrangeCD 6.2
#
# Track frame offsets:
#	182
#	15465
#	30137
#	44365
#	58317
#	71717
#	83582
#	97797
#	112127
#	127035
#	140572
#	155222
#	167852
#	181512
#	194802
#	207597
#
# Disc length: 2959 seconds
#
# Revision: 6
# Processed by: cddbd v1.5.2PL0 Copyright (c) Steve Scherf et al.
# Submitted via: OrangeCD 6.2
#
DISCID=e40b8d10
DTITLE=Arthur 'Big Boy' Crudup - Rock Me Mama
DYEAR=1995
DGENRE=Blues
TTITLE0=Black Pony Blues
TTITLE1=Death Valley Blues
TTITLE2=Kind Lover Blues
TTITLE3=If I Get Lucky
TTITLE4=Give Me A 32-20
TTITLE5=Mean Old Frisco Blues
TTITLE6=Raised To My Hand
TTITLE7=Cool Disposition
TTITLE8=Who's Been Foolin' You
TTITLE9=Rock Me Mama
TTITLE10=That's Your Red Wagon
TTITLE11=So Glad You're Mine
TTITLE12=Boy Friend Blues
TTITLE13=Crudup's After Hours
TTITLE14=I Don't Know It
TTITLE15=Chicago Blues
EXTD=
EXTT0=
EXTT1=
EXTT2=
EXTT3=
EXTT4=
EXTT5=
EXTT6=
EXTT7=
EXTT8=
EXTT9=
EXTT10=
EXTT11=
EXTT12=
EXTT13=
EXTT14=
EXTT15=
PLAYORDER=
